#!OML:ASF I:\Actors\actors\Patient Classification 2\Patient 1\Session 1\actor1.ASF
:FULLY-SPECIFIED
:DEGREES
626
root -0.312066 17.812 3.67659 7.43225 4.47342 1.9258
lowerback 29.8776 -1.64786 1.34512
upperback 5.6211 -1.60206 0.459177
thorax -10.1408 -0.761649 0.339096
lowerneck -23.5885 -2.28366 -4.36149
upperneck 0.411554 -2.26344 6.06317
head 3.89804 -0.753535 2.39242
rclavicle -1.5704e-014 1.07344e-014
rhumerus 32.2681 20.3129 -67.2099
rradius 43.6137
rwrist 27.1253
rhand -25.4067 -43.9083
rfingers 7.12502
rthumb 1.11873 -73.8851
lclavicle -1.5704e-014 1.07344e-014
lhumerus 34.432 -19.9965 81.9674
lradius 42.821
lwrist -6.21759
lhand -25.881 -34.2697
lfingers 7.12502
lthumb 0.66071 -4.29098
rfemur -27.717 -3.20587 10.1841
rtibia 42.9529
rfoot -25.8128 -6.60215
rtoes -14.8285
lfemur -34.9019 1.26152 -17.3665
ltibia 47.598
lfoot -19.3847 2.06305
ltoes -56.1619
627
root -0.312704 17.9427 3.70071 7.99832 4.39636 1.91445
lowerback 29.7937 -1.68276 1.2801
upperback 5.32109 -1.6515 0.592422
thorax -10.4387 -0.781352 0.550399
lowerneck -23.6996 -2.31241 -4.56785
upperneck -0.661907 -2.19756 6.07837
head 3.57547 -0.727143 2.43746
rclavicle 2.36554e-014 -1.11319e-014
rhumerus 35.9425 18.664 -67.4551
rradius 37.9806
rwrist 25.6076
rhand -22.8024 -42.2802
rfingers 7.12502
rthumb 3.6339 -72.229
lclavicle 2.36554e-014 -1.11319e-014
lhumerus 36.6571 -17.7692 83.128
lradius 39.8924
lwrist -4.78326
lhand -25.284 -30.7692
lfingers 7.12502
lthumb 1.23725 -0.793085
rfemur -26.9446 -2.7692 10.1961
rtibia 40.4008
rfoot -25.1455 -7.33448
rtoes -13.8548
lfemur -34.2327 1.08113 -17.3258
ltibia 45.4698
lfoot -18.5898 2.41347
ltoes -56.1305
628
root -0.314242 18.0728 3.73875 8.52713 4.27067 1.86836
lowerback 29.6134 -1.67533 1.19174
upperback 4.95553 -1.65747 0.714898
thorax -10.7638 -0.779874 0.746172
lowerneck -23.7382 -2.38278 -4.63839
upperneck -1.54658 -2.23278 6.04152
head 3.30578 -0.75268 2.43475
rclavicle -1.88845e-014 1.15295e-014
rhumerus 38.4159 17.3113 -67.6877
rradius 34.703
rwrist 23.0209
rhand -18.9784 -42.5163
rfingers 7.12502
rthumb 7.326 -72.3695
lclavicle -1.88845e-014 1.15295e-014
lhumerus 38.0988 -15.8077 84.2987
lradius 38.3709
lwrist -3.22058
lhand -25.4354 -29.867
lfingers 7.12502
lthumb 1.09108 0.109934
rfemur -26.0108 -2.25222 10.2441
rtibia 37.669
rfoot -24.447 -8.18494
rtoes -13.0067
lfemur -33.4363 0.923832 -17.2386
ltibia 43.2671
lfoot -17.8242 2.82728
ltoes -56.1576
629
root -0.317187 18.1971 3.79203 8.92843 4.12549 1.7649
lowerback 29.3786 -1.63421 1.07795
upperback 4.59658 -1.62869 0.841084
thorax -11.0532 -0.760594 0.946582
lowerneck -23.7972 -2.43839 -4.55867
upperneck -2.23385 -2.29407 5.941
head 3.09955 -0.793177 2.38571
rclavicle -2.22639e-014 2.14687e-014
rhumerus 39.8126 16.7267 -67.2812
rradius 33.9283
rwrist 18.8695
rhand -13.059 -44.508
rfingers 7.12502
rthumb 13.0363 -74.0806
lclavicle -2.22639e-014 2.14687e-014
lhumerus 39.0809 -14.1255 85.3736
lradius 37.9381
lwrist -1.4994
lhand -25.0252 -28.4271
lfingers 7.12502
lthumb 1.48727 1.54747
rfemur -24.8102 -1.67138 10.3551
rtibia 34.7741
rfoot -23.8259 -9.04269
rtoes -11.776
lfemur -32.4225 0.834401 -17.0869
ltibia 41.0131
lfoot -17.0675 3.22935
ltoes -56.1462
630
root -0.321669 18.3136 3.85832 9.14531 3.95718 1.62069
lowerback 29.1393 -1.54848 1.00768
upperback 4.29454 -1.53292 0.939013
thorax -11.277 -0.712275 1.06322
lowerneck -24.0267 -2.50879 -4.47117
upperneck -2.71222 -2.38071 5.88266
head 2.98368 -0.839656 2.34622
rclavicle -9.34288e-015 2.78299e-015
rhumerus 40.3093 16.6507 -66.4176
rradius 34.9063
rwrist 13.6053
rhand -16.7455 -45.2289
rfingers 7.12502
rthumb 9.48093 -74.9956
lclavicle -9.34288e-015 2.78299e-015
lhumerus 39.787 -13.7599 84.5163
lradius 38.9559
lwrist 1.82234
lhand -24.7667 -26.7108
lfingers 7.12502
lthumb 1.73686 3.26184
rfemur -23.3077 -1.02693 10.5114
rtibia 31.7419
rfoot -23.3012 -9.90712
rtoes -10.4502
lfemur -31.1605 0.595163 -16.8523
ltibia 38.7827
lfoot -16.4633 3.73406
ltoes -55.9621
631
root -0.351159 18.4282 3.94727 9.32805 3.9253 1.46803
lowerback 28.55 -1.34908 0.619482
upperback 4.0599 -1.37813 1.16087
thorax -11.2335 -0.62227 1.47172
lowerneck -24.139 -2.53835 -4.55684
upperneck -3.23791 -2.37285 5.9225
head 2.83653 -0.83444 2.37474
rclavicle 6.95746e-015 -1.27222e-014
rhumerus 40.3257 15.7038 -66.3694
rradius 36.4481
rwrist 11.6766
rhand -17.4074 -45.2697
rfingers 7.12502
rthumb 8.84219 -75.0644
lclavicle 6.95746e-015 -1.27222e-014
lhumerus 40.5798 -13.5116 83.6628
lradius 39.9858
lwrist 4.41767
lhand -24.3336 -24.9476
lfingers 7.12502
lthumb 2.15514 5.0213
rfemur -21.5587 -0.133881 10.7637
rtibia 28.6027
rfoot -23.1652 -11.0147
rtoes -8.96939
lfemur -29.8146 0.263839 -16.4938
ltibia 36.63
lfoot -15.9706 4.19828
ltoes -55.7718
632
root -0.355841 18.5235 4.0298 9.37204 3.89064 1.2676
lowerback 28.2212 -1.27932 0.616479
upperback 3.71654 -1.27623 1.29754
thorax -11.4593 -0.571075 1.5906
lowerneck -23.9974 -2.46846 -4.68947
upperneck -3.78543 -2.23139 5.99614
head 2.64343 -0.76416 2.43407
rclavicle 5.76476e-015 7.95139e-016
rhumerus 40.4064 14.9697 -66.1111
rradius 37.6491
rwrist 10.215
rhand -18.8509 -44.3079
rfingers 7.12502
rthumb 7.44902 -74.1567
lclavicle 5.76476e-015 7.95139e-016
lhumerus 41.232 -13.4207 82.3837
lradius 41.0622
lwrist 6.69289
lhand -23.6515 -22.8857
lfingers 7.12502
lthumb 2.81395 7.07553
rfemur -19.6839 0.50041 10.9933
rtibia 25.3812
rfoot -22.7791 -11.9714
rtoes -7.55075
lfemur -28.4615 -0.195657 -16.1678
ltibia 34.6225
lfoot -15.4942 4.86432
ltoes -55.6175
633
root -0.335696 18.6005 4.1036 9.27807 3.84718 1.05852
lowerback 27.9708 -1.3448 1.02325
upperback 3.39929 -1.24009 1.30477
thorax -11.7058 -0.571648 1.35161
lowerneck -23.7784 -2.39617 -4.62627
upperneck -4.22085 -2.1385 5.83504
head 2.47034 -0.732251 2.38303
rclavicle 7.15625e-015 -4.37326e-015
rhumerus 40.9854 14.677 -64.8128
rradius 38.1504
rwrist 8.94172
rhand -20.4754 -42.778
rfingers 7.12502
rthumb 5.88086 -72.6764
lclavicle 7.15625e-015 -4.37326e-015
lhumerus 41.884 -13.5115 80.4646
lradius 42.1489
lwrist 9.27097
lhand -22.8716 -20.7871
lfingers 7.12502
lthumb 3.56706 9.16283
rfemur -17.7127 0.818758 11.1644
rtibia 22.1094
rfoot -22.0424 -12.7901
rtoes -6.54317
lfemur -27.1022 -0.842737 -15.9143
ltibia 32.7971
lfoot -15.1681 5.72439
ltoes -55.4908
634
root -0.3397 18.6691 4.19067 9.18803 3.8748 0.860159
lowerback 27.4496 -1.31415 1.11811
upperback 3.12468 -1.16741 1.41573
thorax -11.7518 -0.540773 1.38936
lowerneck -23.6535 -2.38903 -4.55836
upperneck -4.41672 -2.13465 5.55713
head 2.38594 -0.747325 2.28577
rclavicle 1.55052e-014 -1.90833e-014
rhumerus 41.3714 14.3268 -63.3407
rradius 38.6378
rwrist 8.49157
rhand -21.0338 -41.8612
rfingers 7.12502
rthumb 5.34173 -71.7739
lclavicle 1.55052e-014 -1.90833e-014
lhumerus 42.6191 -13.6112 78.4148
lradius 42.9927
lwrist 11.9711
lhand -21.9856 -18.8772
lfingers 7.12502
lthumb 4.42265 11.0566
rfemur -15.6342 1.36987 11.4037
rtibia 18.8153
rfoot -21.5468 -13.8227
rtoes -5.39437
lfemur -25.7927 -1.43416 -15.5974
ltibia 31.1845
lfoot -15.007 6.4177
ltoes -55.4965
635
root -0.346211 18.7227 4.27678 8.95974 3.93275 0.641419
lowerback 26.958 -1.29609 1.25339
upperback 2.91778 -1.10266 1.50532
thorax -11.7339 -0.516236 1.38182
lowerneck -23.5385 -2.4085 -4.59173
upperneck -4.54888 -2.14893 5.50298
head 2.32951 -0.758532 2.27345
rclavicle 1.19271e-015 1.15295e-014
rhumerus 40.9289 13.234 -63.3901
rradius 39.6237
rwrist 9.54719
rhand -20.3407 -41.5264
rfingers 7.12502
rthumb 6.01087 -71.4212
lclavicle 1.19271e-015 1.15295e-014
lhumerus 43.5195 -13.6722 76.3255
lradius 43.5143
lwrist 14.5872
lhand -21.0402 -17.3008
lfingers 7.12502
lthumb 5.33558 12.612
rfemur -13.3808 1.91227 11.6841
rtibia 15.4689
rfoot -21.047 -14.882
rtoes -4.1502
lfemur -24.4631 -1.98342 -15.2654
ltibia 29.7689
lfoot -14.8674 6.98241
ltoes -55.5092
636
root -0.353394 18.7656 4.3606 8.6814 3.97101 0.486727
lowerback 26.4491 -1.2631 1.30477
upperback 2.72945 -1.04932 1.55849
thorax -11.6825 -0.494079 1.38483
lowerneck -23.5213 -2.42738 -4.64721
upperneck -4.47675 -2.1635 5.56908
head 2.35219 -0.761387 2.3016
rclavicle -1.35174e-014 1.19271e-015
rhumerus 41.1866 12.8531 -62.1271
rradius 40.186
rwrist 8.49794
rhand -19.5432 -41.818
rfingers 7.12502
rthumb 6.7808 -71.6894
lclavicle -1.35174e-014 1.19271e-015
lhumerus 44.271 -13.5607 74.5835
lradius 43.8803
lwrist 16.5639
lhand -20.2551 -16.1191
lfingers 7.12502
lthumb 6.09356 13.7733
rfemur -11.0182 2.43241 11.9052
rtibia 11.9706
rfoot -20.39 -16.0478
rtoes -3.53761
lfemur -23.1795 -2.43367 -15.0293
ltibia 28.5179
lfoot -14.7472 7.44199
ltoes -55.4786
637
root -0.360487 18.8003 4.44251 8.44915 4.00183 0.405841
lowerback 25.7135 -1.22621 1.25872
upperback 2.62838 -1.02743 1.60232
thorax -11.4061 -0.483113 1.43671
lowerneck -23.6285 -2.43893 -4.66135
upperneck -4.34309 -2.17375 5.55484
head 2.40807 -0.764425 2.29788
rclavicle 1.61016e-014 -4.77083e-015
rhumerus 41.521 12.2016 -61.5173
rradius 40.4799
rwrist 7.46305
rhand -18.445 -42.0506
rfingers 7.12502
rthumb 7.84088 -71.8852
lclavicle 1.61016e-014 -4.77083e-015
lhumerus 44.958 -13.0373 73.6089
lradius 43.9889
lwrist 17.2357
lhand -19.5487 -15.3064
lfingers 7.12502
lthumb 6.77551 14.5652
rfemur -8.48135 2.46567 12.116
rtibia 8.00864
rfoot -19.178 -17.1037
rtoes -3.25833
lfemur -22.0463 -2.79079 -14.894
ltibia 27.4462
lfoot -14.6798 7.81862
ltoes -55.4311
638
root -0.368581 18.8272 4.52277 8.27228 4.00397 0.320578
lowerback 24.9538 -1.17673 1.21852
upperback 2.48368 -0.986471 1.65024
thorax -11.1646 -0.463403 1.48379
lowerneck -23.6851 -2.46638 -4.65713
upperneck -4.21322 -2.2087 5.45565
head 2.45515 -0.784982 2.26236
rclavicle 4.96962e-015 -8.74653e-015
rhumerus 41.7808 11.3692 -61.4477
rradius 40.5234
rwrist 6.49073
rhand -17.0996 -42.213
rfingers 7.12502
rthumb 9.13922 -71.995
lclavicle 4.96962e-015 -8.74653e-015
lhumerus 45.511 -12.2921 73.3853
lradius 43.7912
lwrist 16.9961
lhand -18.7957 -14.9619
lfingers 7.12502
lthumb 7.50234 14.885
rfemur -4.02326 2.50277 12.2709
rtibia 3.97569e-015
rfoot -16.3813 -19.4855
rtoes -2.61686
lfemur -21.0942 -2.90788 -14.7804
ltibia 26.5603
lfoot -14.5927 8.00668
ltoes -55.4353
639
root -0.378299 18.8484 4.60133 8.17133 3.94196 0.262001
lowerback 24.1115 -1.0968 1.12269
upperback 2.31239 -0.923113 1.68669
thorax -10.9056 -0.431187 1.54148
lowerneck -23.5816 -2.50076 -4.69182
upperneck -4.14352 -2.24917 5.41104
head 2.46413 -0.807844 2.25017
rclavicle 2.10712e-014 -2.50469e-014
rhumerus 42.0797 10.6883 -61.1693
rradius 40.4954
rwrist 5.08129
rhand -16.1561 -42.4907
rfingers 7.12502
rthumb 10.0495 -72.2308
lclavicle 2.10712e-014 -2.50469e-014
lhumerus 45.9707 -11.4969 73.5586
lradius 43.457
lwrist 16.5442
lhand -18.2035 -14.9862
lfingers 7.12502
lthumb 8.07391 14.8396
rfemur -3.64572 2.59612 12.418
rtibia 7.95139e-016
rfoot -16.7446 -19.2844
rtoes -2.30078
lfemur -20.3464 -3.01525 -14.6898
ltibia 25.9147
lfoot -14.6309 8.22557
ltoes -55.4596
